<?xml version="1.0" standalone="no"?>
<!DOCTYPE svg PUBLIC "-//W3C//DTD SVG 20010904//EN"
 "http://www.w3.org/TR/2001/REC-SVG-20010904/DTD/svg10.dtd">
<svg version="1.0" xmlns="http://www.w3.org/2000/svg"
 width="260.000000pt" height="260.000000pt" viewBox="0 0 260.000000 260.000000"
 preserveAspectRatio="xMidYMid meet">
<metadata>
Created by potrace 1.14, written by Peter Selinger 2001-2017
</metadata>
<g transform="translate(0.000000,260.000000) scale(0.100000,-0.100000)"
fill="#000000" stroke="none">
<path d="M614 2585 c9 -25 -4 -46 -25 -40 -27 9 -24 -12 6 -39 27 -26 32 -57
12 -75 -19 -15 -85 -22 -93 -10 -4 6 -14 5 -28 -5 -12 -8 -38 -15 -57 -17 -19
-2 -38 -5 -44 -8 -5 -3 -25 -6 -45 -6 -70 -3 -100 -15 -107 -43 -4 -15 -6 -36
-5 -47 0 -11 -5 -29 -12 -40 -24 -36 -36 -145 -42 -365 -2 -85 -6 -254 -9
-375 -3 -121 -7 -260 -10 -310 -2 -49 -5 -120 -6 -157 -2 -37 -6 -65 -11 -62
-4 3 -8 1 -8 -5 0 -5 4 -12 8 -15 5 -3 7 -65 6 -138 -5 -248 -19 -720 -23
-750 -3 -21 -38 -4 -52 25 -9 17 -22 32 -30 32 -21 0 -40 -48 -33 -84 6 -28 8
-30 23 -17 18 16 49 14 151 -9 36 -8 99 -15 140 -16 129 -2 150 0 150 15 0 10
-9 14 -27 12 -16 -2 -34 -1 -41 1 -16 7 -16 100 1 106 9 4 9 8 -2 15 -10 7
-13 30 -12 83 3 97 9 445 10 535 l1 71 53 3 c28 1 62 2 75 2 12 0 22 5 22 10
0 6 11 8 28 4 55 -14 77 -14 89 -4 23 19 14 27 -27 25 -22 -2 -40 1 -40 5 0
10 -37 10 -43 1 -5 -7 -94 -9 -152 -4 -26 2 -51 21 -58 46 -6 18 -2 20 46 22
48 2 150 8 257 16 25 2 50 -1 57 -5 7 -6 20 -4 33 4 17 11 22 11 30 -1 7 -12
11 -13 25 -1 9 7 31 13 50 12 22 -1 35 3 35 11 0 8 3 9 8 1 8 -11 90 -16 107
-6 6 4 21 7 35 8 141 6 199 6 210 -1 7 -4 15 -3 19 2 7 12 3 11 151 17 206 9
345 17 367 22 29 6 50 -28 28 -46 -8 -7 -15 -17 -15 -22 0 -21 -26 -36 -44
-26 -12 7 -21 7 -28 0 -7 -7 -19 -7 -34 -2 -16 7 -24 6 -24 -1 0 -7 -11 -9
-30 -5 -17 3 -30 1 -30 -5 0 -6 -8 -6 -21 2 -12 6 -24 7 -28 3 -3 -5 -26 -9
-51 -9 -59 1 -83 -11 -75 -35 4 -13 -2 -28 -19 -45 -14 -14 -26 -30 -26 -35 0
-6 -7 -10 -15 -10 -8 0 -15 -7 -15 -15 0 -8 -8 -29 -18 -47 -15 -27 -17 -45
-12 -105 4 -39 6 -86 5 -105 -2 -18 2 -38 7 -45 6 -8 6 -31 -2 -66 -6 -29 -8
-61 -4 -70 3 -10 1 -24 -6 -32 -7 -8 -9 -15 -5 -15 4 0 1 -7 -6 -16 -34 -41
-9 -68 59 -65 26 1 54 2 62 1 8 0 38 0 65 1 45 1 63 2 124 7 19 2 35 38 24 54
-3 5 -14 0 -24 -11 -14 -15 -30 -20 -59 -18 -21 1 -42 6 -45 9 -4 4 -17 3 -29
-1 -11 -5 -27 -6 -34 -4 -7 3 -19 0 -26 -6 -10 -9 -17 -7 -27 6 -10 12 -11 15
-1 9 7 -4 18 -4 25 1 7 5 45 9 85 8 39 0 72 3 72 8 0 4 5 5 10 2 20 -12 41 16
35 46 -4 16 -6 106 -6 201 0 222 -8 257 -65 304 -42 35 -64 38 -64 8 0 -8 -4
-14 -9 -14 -13 0 -20 50 -7 58 11 7 107 14 235 16 83 1 75 10 85 -94 3 -30 8
-79 12 -107 7 -54 -2 -67 -26 -38 -19 22 -23 20 -56 -37 -32 -57 -34 -81 -19
-273 4 -44 7 -125 8 -180 2 -98 2 -100 -23 -111 -19 -9 -32 -8 -54 3 -24 12
-33 13 -55 2 -33 -16 -192 -19 -206 -3 -17 19 -65 27 -65 10 0 -19 -54 -38
-69 -23 -8 8 -14 8 -22 0 -9 -9 -16 -9 -29 0 -14 8 -22 8 -33 -2 -10 -8 -17
-9 -22 -1 -4 6 -12 7 -23 1 -9 -5 -71 -7 -137 -5 -66 3 -126 4 -132 4 -45 -3
-63 -6 -63 -11 0 -4 -21 -5 -47 -4 -26 2 -55 -1 -64 -6 -11 -5 -20 -5 -24 0
-9 15 -153 10 -159 -6 -7 -18 -3 -18 529 -9 187 4 397 8 468 10 74 2 127 0
127 -5 0 -6 8 -5 20 1 10 6 100 12 199 14 99 2 184 7 190 10 5 4 12 3 15 -2 3
-6 74 -8 84 -2 1 0 45 1 99 2 53 0 109 4 124 8 17 5 31 5 34 -1 4 -5 14 -5 23
-1 9 4 53 7 97 6 95 -2 118 5 88 30 -18 16 -19 28 -16 194 2 97 3 252 4 344 0
131 4 169 15 179 8 6 14 23 14 36 0 22 -4 25 -29 21 -21 -3 -28 -1 -24 9 3 7
1 13 -5 13 -6 0 -13 -6 -15 -12 -4 -10 -6 -10 -6 -1 -1 9 -8 10 -27 3 -15 -6
-23 -6 -19 -1 3 5 1 12 -5 16 -5 3 -10 1 -10 -5 0 -8 -6 -8 -20 0 -12 6 -53
11 -93 10 -40 -1 -114 -2 -166 -2 l-95 -1 -38 44 c-20 24 -38 50 -38 57 0 6
-4 12 -9 12 -5 0 -22 20 -38 45 -22 37 -33 45 -53 43 -14 -1 -31 1 -38 5 -6 5
-12 4 -12 -2 0 -13 -107 -6 -124 8 -10 8 -16 9 -21 2 -4 -7 -16 -6 -36 4 -16
9 -29 12 -29 7 0 -6 -18 -5 -42 0 -24 5 -54 9 -68 9 -14 0 -42 6 -62 14 -24 9
-39 11 -43 5 -4 -6 -11 -7 -17 -4 -6 4 -25 8 -42 10 -76 8 -100 14 -108 26 -5
9 -11 10 -15 3 -9 -12 -23 -13 -41 -1 -7 4 -19 3 -27 -4 -7 -6 -28 -12 -47
-13 -18 -1 -38 -6 -44 -10 -23 -14 -32 20 -39 138 -3 66 -8 136 -10 155 -3 19
-7 69 -9 110 -3 41 -9 86 -12 100 -4 14 -8 62 -9 107 0 45 -3 85 -7 88 -3 3
-4 25 -2 49 2 24 -1 67 -7 97 -11 59 -16 94 -18 138 0 17 -12 43 -26 58 -41
46 -45 52 -45 60 0 5 -9 14 -19 20 -11 7 -32 34 -48 60 -15 26 -41 62 -58 79
-27 26 -39 30 -81 30 -47 -1 -49 0 -52 27 -3 22 1 30 18 34 13 4 19 11 16 20
-3 8 -6 17 -6 19 0 2 -6 4 -14 4 -8 0 -17 14 -21 30 -4 17 -13 30 -22 30 -9 0
-13 -6 -9 -15z m118 -213 c7 -15 12 -41 10 -58 l-3 -31 -92 -7 c-51 -4 -103
-7 -116 -6 -13 0 -30 -5 -37 -11 -8 -6 -20 -9 -29 -6 -8 4 -17 2 -20 -3 -4 -6
-14 -5 -26 3 -13 8 -22 9 -27 2 -11 -15 -109 -18 -118 -4 -12 21 -12 68 1 85
8 11 30 18 66 21 30 2 61 6 69 9 8 3 33 8 55 10 22 2 56 6 75 9 19 3 59 7 87
9 29 1 56 5 59 9 11 11 33 -5 46 -31z m12 -140 c9 -15 -20 -38 -49 -37 -42 2
-85 -21 -85 -45 0 -25 20 -26 26 -2 4 13 16 17 57 17 29 0 57 -4 63 -7 7 -5
12 -41 13 -88 1 -44 4 -87 7 -94 3 -8 1 -17 -5 -20 -6 -4 -7 -14 -4 -23 8 -21
8 -81 0 -89 -4 -4 -4 -17 -1 -30 6 -22 3 -23 -62 -26 -45 -2 -69 -7 -72 -16
-3 -11 10 -12 62 -9 42 2 69 0 74 -7 4 -6 7 -60 7 -120 0 -77 4 -111 12 -113
12 -4 24 29 28 76 1 14 3 34 3 44 3 34 21 6 20 -31 0 -20 2 -66 5 -102 4 -36
9 -97 11 -137 4 -68 4 -72 -14 -61 -28 18 -37 47 -33 115 3 66 -2 75 -35 67
-29 -8 -37 -35 -15 -52 14 -10 18 -30 20 -105 1 -51 6 -117 11 -147 5 -30 6
-65 1 -77 -8 -21 -42 -39 -66 -35 -7 2 -13 -2 -13 -8 0 -7 -8 -9 -20 -5 -11 3
-20 2 -20 -3 0 -5 -10 -10 -22 -11 -87 -7 -92 -6 -96 14 -6 31 -33 55 -62 55
-32 0 -53 -22 -69 -70 -10 -32 -15 -35 -53 -38 -86 -7 -138 -21 -138 -37 0 -7
23 -28 51 -46 60 -38 78 -71 79 -149 1 -60 -1 -71 -10 -65 -12 7 -25 -16 -13
-24 15 -10 22 -37 12 -52 -5 -9 -28 -15 -61 -15 -29 -1 -59 -2 -65 -3 -18 -1
-16 -31 3 -52 14 -15 16 -52 16 -265 1 -258 -1 -268 -43 -257 -11 3 -21 17
-24 37 -5 26 -4 55 4 162 1 7 10 14 21 17 26 7 26 27 0 27 -12 0 -20 7 -21 18
-4 120 5 336 16 370 2 6 16 12 30 12 14 0 25 5 25 10 0 6 -13 10 -30 10 -17 0
-30 5 -31 13 -2 36 1 324 5 398 3 93 9 111 31 103 7 -3 22 -1 33 5 15 8 22 8
25 -2 2 -6 8 -9 12 -5 14 13 -7 28 -39 28 -19 0 -38 6 -44 13 -6 7 -8 74 -6
177 3 91 5 181 5 200 0 59 7 75 39 88 36 16 40 35 6 26 -15 -3 -27 -1 -32 8
-14 23 -2 344 14 359 4 4 26 9 49 13 40 6 43 5 49 -21 4 -15 7 -40 7 -55 0
-19 5 -27 15 -26 12 3 15 -14 16 -92 1 -83 -1 -95 -15 -92 -10 1 -19 -7 -22
-20 -9 -31 9 -47 26 -23 13 17 14 17 19 -3 4 -15 14 -20 41 -20 20 0 41 -3 47
-7 13 -8 70 13 70 26 0 5 -14 16 -31 24 -44 23 -35 50 16 50 32 0 41 -4 45
-20 4 -14 14 -20 35 -20 l30 0 -4 135 c-1 74 -5 138 -8 143 -8 14 -25 -5 -20
-23 2 -10 1 -24 -4 -31 -6 -10 -9 -6 -9 12 0 15 -11 38 -26 53 -30 29 -44 33
-44 11 0 -17 -29 -9 -46 14 -10 13 -14 13 -29 -3 -10 -9 -28 -24 -41 -33 -13
-8 -24 -23 -25 -32 -1 -26 -17 19 -18 52 -1 29 -8 31 -78 27 -35 -2 -46 17
-16 26 10 3 26 10 36 15 11 6 24 6 37 -1 15 -8 20 -8 20 1 0 7 10 9 24 7 14
-3 30 -1 37 3 7 4 21 3 31 -2 12 -7 25 -6 40 2 12 6 57 13 100 14 44 2 82 6
85 9 9 9 61 7 67 -2z m73 -169 c-4 -3 -2 -12 3 -18 11 -13 4 -45 -10 -45 -10
0 -22 48 -15 60 4 6 11 10 17 10 6 0 8 -3 5 -7z m93 -604 c0 -6 9 -24 20 -40
17 -23 19 -32 10 -50 l-12 -21 -23 22 c-16 15 -22 30 -19 53 1 18 3 35 3 40 1
11 21 8 21 -4z m80 -88 c0 -11 4 -22 10 -26 5 -3 7 -12 3 -21 -6 -16 -15 -12
-19 9 -2 7 -6 22 -10 35 -4 13 -2 22 5 22 6 0 11 -9 11 -19z m-60 -62 c0 -5
-4 -9 -10 -9 -5 0 -10 7 -10 16 0 8 5 12 10 9 6 -3 10 -10 10 -16z m79 -81 c1
-5 -3 -8 -8 -8 -11 0 -21 37 -13 45 6 5 20 -19 21 -37z m236 -95 c8 4 17 2 20
-3 3 -4 24 -9 48 -9 23 -1 56 -3 72 -5 17 -1 42 -4 58 -4 21 -2 27 -7 27 -25
0 -21 -5 -23 -52 -26 -101 -5 -120 -3 -142 18 -34 32 -102 29 -128 -5 -11 -14
-22 -23 -25 -21 -2 3 -25 -2 -50 -9 -31 -9 -50 -11 -57 -4 -6 6 -14 6 -21 0
-7 -6 -24 -6 -41 -1 -16 4 -40 6 -54 4 -38 -7 -80 -6 -86 0 -16 16 12 29 54
24 35 -4 50 -1 65 14 13 12 28 16 47 12 17 -3 37 1 54 12 17 12 40 16 71 13
32 -2 45 1 45 10 0 7 4 10 10 7 5 -3 18 -2 27 4 12 6 22 6 30 -1 7 -6 19 -8
28 -5z m-725 -63 c0 -31 -1 -35 -12 -32 -5 1 -17 -5 -26 -14 -15 -16 -17 -15
-25 10 -13 38 -2 56 33 56 23 0 30 -4 30 -20z m705 -1 c11 -17 -1 -21 -15 -4
-8 9 -8 15 -2 15 6 0 14 -5 17 -11z m1186 -208 c4 0 7 -11 7 -23 -1 -13 1 -56
2 -96 3 -83 -12 -113 -46 -94 -12 7 -25 7 -37 0 -12 -6 -22 -6 -31 1 -7 6 -16
8 -20 4 -11 -11 -40 -10 -48 2 -5 6 -11 6 -19 -2 -6 -6 -18 -9 -25 -6 -8 3
-14 0 -14 -7 0 -10 -3 -10 -15 0 -12 10 -18 10 -29 1 -10 -9 -16 -9 -21 -1 -5
8 -13 6 -26 -6 -18 -17 -19 -17 -13 -1 6 15 1 17 -36 12 -24 -3 -49 -10 -55
-15 -7 -5 -14 -8 -16 -5 -3 2 -22 6 -43 9 -59 7 -66 21 -28 56 31 28 43 60 22
60 -5 0 -10 -4 -10 -10 0 -14 -13 -13 -35 3 -13 10 -16 21 -11 40 3 15 12 27
18 27 7 0 22 12 33 27 14 17 26 23 34 18 11 -6 11 -9 0 -16 -11 -6 -10 -12 4
-27 9 -10 17 -22 17 -25 0 -12 -35 -8 -48 5 -15 15 -24 6 -17 -15 11 -27 85
-30 85 -3 0 15 56 76 69 76 6 0 11 -6 11 -14 0 -22 122 -38 134 -17 3 5 25 4
52 -1 54 -12 83 3 51 27 -13 9 -15 14 -5 18 11 4 89 3 109 -2z m129 -56 c-11
-13 -70 -19 -70 -6 0 17 23 27 50 23 23 -3 28 -7 20 -17z m-10 -65 c0 -11 5
-22 10 -25 7 -4 7 -11 2 -18 -5 -7 -8 -30 -6 -52 4 -73 1 -340 -6 -553 0 -9
-15 -12 -50 -10 l-49 3 2 37 c1 21 8 40 15 43 11 4 11 8 -1 19 -19 20 -15 157
7 187 10 15 12 27 6 34 -11 13 -14 170 -4 220 3 17 6 46 8 66 4 40 32 80 52
72 8 -3 14 -13 14 -23z m-1045 -61 c5 -57 -3 -109 -16 -109 -16 0 -33 45 -30
80 1 19 7 53 12 75 9 31 13 36 20 23 5 -9 11 -40 14 -69z m55 17 c0 -8 8 -22
17 -32 22 -22 27 -80 7 -88 -33 -13 -43 4 -41 70 1 35 5 64 10 64 4 0 7 -6 7
-14z m-142 -83 c2 -28 0 -34 -8 -23 -12 18 -13 60 -2 60 4 0 9 -17 10 -37z
m410 -5 c2 -12 -5 -19 -22 -24 -35 -8 -49 2 -33 27 14 23 50 21 55 -3z m-1473
-22 c19 -13 20 -26 19 -268 -1 -140 -4 -260 -8 -267 -4 -6 -13 -8 -19 -4 -7 5
-21 8 -32 8 -18 0 -20 7 -22 65 -3 82 -2 231 1 293 2 26 -1 50 -5 53 -9 5 5
35 29 65 11 14 8 19 -15 35 l-28 18 25 7 c14 4 27 7 30 8 3 1 14 -5 25 -13z
m2062 -29 c1 -21 -2 -35 -7 -32 -14 9 -23 -15 -11 -29 8 -10 9 -27 2 -57 -7
-31 -7 -46 1 -50 15 -9 19 -32 17 -94 -1 -27 -1 -85 -1 -127 l1 -78 -32 -2
c-18 -1 -40 -2 -49 -1 -10 0 -18 -4 -18 -8 0 -4 -19 -6 -42 -4 -24 1 -51 -2
-61 -7 -11 -6 -23 -6 -30 0 -7 5 -39 8 -72 6 -70 -2 -83 3 -58 22 15 11 15 14
3 15 -8 1 -22 3 -30 4 -8 1 -21 3 -28 4 -7 0 -11 5 -8 10 3 5 15 7 26 4 15 -4
20 0 20 15 0 11 6 23 13 25 21 9 -15 27 -40 20 -16 -3 -23 -1 -23 9 0 7 -10
18 -22 23 -44 20 -33 36 21 31 35 -2 51 0 51 9 0 6 9 23 21 36 12 14 18 31 15
44 -3 11 -6 28 -6 38 0 9 -4 17 -10 17 -5 0 -10 -13 -10 -28 0 -16 -7 -37 -15
-48 -15 -19 -15 -19 -28 1 -6 11 -17 43 -23 70 -13 62 5 110 37 102 25 -7 34
14 19 43 -14 26 -6 37 15 20 12 -10 18 -10 29 -1 16 13 126 26 126 16 0 -4 -9
-20 -21 -36 -11 -16 -18 -36 -15 -44 3 -8 1 -17 -3 -20 -13 -7 -1 -189 12
-198 7 -4 41 -5 77 -3 36 2 70 0 77 -5 18 -16 35 25 31 78 -3 51 -28 74 -28
26 0 -27 -11 -53 -23 -56 -19 -5 -34 43 -32 104 3 75 8 89 36 89 28 0 23 26
-11 52 -16 12 -30 25 -30 29 0 4 30 6 67 5 l67 -2 3 -37z m-603 -15 c3 -10 7
-102 7 -205 2 -166 4 -188 20 -203 10 -9 22 -13 28 -9 7 3 8 0 5 -9 -3 -9 -12
-16 -19 -16 -7 0 -15 -9 -18 -20 -3 -12 -14 -20 -25 -20 -43 0 -49 9 -46 65 2
30 -1 103 -5 162 -4 61 -4 116 1 126 5 9 5 23 1 30 -12 19 -13 78 -2 99 12 23
46 23 53 0z m-218 -29 c-6 -95 -56 -102 -56 -8 0 27 5 34 23 38 12 2 25 5 29
6 3 0 5 -16 4 -36z m-89 -26 c-2 -77 -44 -83 -44 -7 0 40 12 61 32 54 9 -4 13
-20 12 -47z m-88 11 c5 -14 5 -28 -1 -35 -5 -7 -6 -18 -2 -25 5 -9 4 -10 -4
-3 -6 6 -11 21 -12 35 -4 54 4 66 19 28z m534 -78 c5 -68 -1 -120 -13 -120
-25 0 -41 102 -26 174 6 33 9 37 21 25 8 -8 16 -42 18 -79z m289 63 c7 -16 12
-44 12 -63 -1 -19 -2 -47 -3 -62 -1 -29 -7 -33 -29 -19 -12 7 -18 78 -13 149
2 30 17 28 33 -5z m-739 -128 c2 -14 -1 -33 -8 -42 -23 -31 -38 20 -26 86 3
12 30 -24 34 -44z m73 13 c1 -15 -4 -35 -11 -45 -13 -16 -14 -13 -15 30 0 52
20 64 26 15z m-152 -32 c1 -34 -13 -53 -15 -21 -5 53 -3 73 5 65 5 -5 9 -25
10 -44z m576 -256 c0 -5 -4 -10 -10 -10 -5 0 -10 5 -10 10 0 6 5 10 10 10 6 0
10 -4 10 -10z"/>
<path d="M320 1746 c0 -8 6 -16 13 -19 6 -2 12 -16 12 -32 0 -16 6 -30 13 -32
7 -3 12 4 12 16 0 24 16 36 49 36 13 0 26 6 29 13 3 10 -5 12 -29 9 -19 -2
-49 2 -66 10 -28 11 -33 11 -33 -1z"/>
<path d="M565 1733 c4 -10 10 -39 12 -65 5 -49 -4 -59 -29 -35 -28 25 -62 40
-66 28 -2 -6 -12 -11 -22 -11 -10 0 -22 -5 -25 -10 -4 -6 -15 -8 -26 -5 -13 4
-19 2 -19 -9 0 -9 -7 -16 -15 -16 -24 0 -32 -31 -31 -135 1 -82 4 -100 16
-103 13 -2 16 8 18 45 2 70 8 108 23 143 12 27 18 30 51 28 28 -1 42 3 52 18
19 25 36 9 45 -43 8 -44 -11 -119 -29 -115 -18 4 -41 -18 -33 -32 4 -6 0 -5
-9 2 -11 8 -18 9 -22 3 -4 -6 -20 -8 -36 -4 -18 3 -30 1 -30 -5 0 -17 19 -24
69 -26 35 -2 54 4 79 22 18 14 35 22 38 20 3 -3 6 -32 7 -64 1 -31 7 -59 12
-61 11 -3 19 396 9 430 -3 9 -15 17 -26 17 -15 0 -18 -4 -13 -17z"/>
<path d="M629 1518 c-7 -21 -6 -78 2 -78 5 0 9 -9 9 -20 0 -13 7 -20 20 -20
23 0 27 28 5 36 -10 4 -13 14 -9 30 4 15 0 29 -10 39 -9 9 -16 15 -17 13z"/>
<path d="M350 1281 c0 -13 -8 -21 -22 -23 -30 -4 -25 -20 10 -33 26 -10 34
-26 33 -73 -1 -42 24 -18 27 26 2 23 7 42 13 42 5 0 9 5 9 10 0 6 -7 10 -16
10 -9 0 -21 14 -27 30 -13 34 -27 40 -27 11z"/>
<path d="M583 1253 c-15 -6 -17 -43 -3 -43 12 0 24 25 18 38 -1 5 -9 7 -15 5z"/>
<path d="M447 1233 c-14 -13 -6 -24 15 -21 27 4 36 28 11 28 -11 0 -23 -3 -26
-7z"/>
<path d="M1162 908 c7 -19 38 -22 38 -4 0 10 -9 16 -21 16 -12 0 -19 -5 -17
-12z"/>
<path d="M1222 908 c6 -18 28 -21 28 -4 0 9 -7 16 -16 16 -9 0 -14 -5 -12 -12z"/>
<path d="M1267 905 c-4 -8 -2 -17 4 -21 11 -6 39 13 39 27 0 15 -37 10 -43 -6z"/>
<path d="M998 846 c-9 -9 -21 -16 -26 -16 -6 0 -13 -7 -16 -16 -9 -22 -8 -26
5 -19 18 12 47 -24 44 -54 -1 -15 -5 -33 -9 -39 -9 -15 1 -32 19 -32 12 0 30
27 27 43 -4 17 20 5 25 -13 7 -26 18 -25 37 2 20 28 20 45 1 82 -13 24 -13 27
-1 17 27 -23 35 -64 19 -104 -8 -20 -19 -35 -23 -32 -5 3 -11 1 -15 -5 -3 -5
-17 -10 -31 -10 -29 0 -31 -15 -3 -30 17 -10 27 -7 59 15 69 48 77 138 18 198
-26 26 -109 34 -130 13z m92 -92 c0 -8 -4 -12 -10 -9 -5 3 -10 13 -10 21 0 8
5 12 10 9 6 -3 10 -13 10 -21z"/>
<path d="M585 814 c-30 -41 -45 -54 -61 -54 -8 0 -12 -5 -9 -10 4 -6 -2 -26
-13 -44 -11 -19 -18 -37 -14 -40 3 -4 5 -25 5 -47 0 -22 5 -43 11 -45 14 -5
18 -131 5 -140 -5 -3 -7 -15 -4 -27 3 -12 7 -45 9 -74 4 -44 2 -53 -14 -58
-22 -7 -34 -37 -25 -64 5 -17 15 -18 148 -14 132 4 174 13 162 33 -3 5 -22 6
-42 3 -26 -4 -34 -3 -29 5 9 15 76 16 76 2 0 -5 7 -10 15 -10 16 0 21 35 6 44
-4 3 -10 74 -11 158 -5 289 -5 291 -24 321 -10 15 -22 27 -27 27 -5 0 -9 7 -9
16 0 9 -7 14 -17 12 -10 -2 -23 3 -30 12 -10 13 -14 12 -32 -9 -12 -13 -22
-20 -22 -15 -1 5 -2 16 -3 24 -2 25 -30 22 -51 -6z m66 -126 c1 -13 3 -43 5
-68 3 -53 -9 -81 -27 -63 -12 12 -14 127 -3 145 10 16 24 8 25 -14z m80 -35
c0 -10 2 -37 4 -60 4 -47 -6 -61 -26 -37 -15 19 -20 49 -13 87 6 30 34 38 35
10z m-149 -63 c-5 -52 -27 -48 -27 6 -1 48 3 58 19 45 7 -6 10 -27 8 -51z m78
-137 c0 -23 -5 -33 -15 -33 -24 0 -39 49 -25 80 11 24 12 24 26 5 8 -10 14
-34 14 -52z m81 30 c4 -21 2 -39 -6 -50 -20 -27 -42 -2 -39 44 3 48 1 45 21
41 10 -2 20 -16 24 -35z m-167 -10 c-3 -53 -3 -53 -15 -53 -6 0 -9 6 -6 13 3
8 1 20 -3 27 -8 13 8 50 21 50 3 0 5 -17 3 -37z m87 -145 c0 -13 -2 -33 -6
-45 -5 -16 -3 -25 9 -29 26 -10 18 -24 -13 -24 -31 0 -49 14 -31 25 6 4 7 23
4 45 -4 22 -3 51 0 66 7 27 7 27 22 6 8 -11 14 -31 15 -44z m-87 36 c10 -25 7
-82 -4 -89 -15 -9 -27 30 -22 71 4 36 16 44 26 18z m166 -4 c7 -12 7 -27 2
-37 -5 -10 -7 -24 -5 -30 3 -8 -4 -13 -16 -13 -17 0 -21 6 -21 34 0 63 19 85
40 46z"/>
<path d="M927 744 c-5 -28 14 -74 38 -94 24 -20 31 -2 13 33 -9 18 -19 44 -22
60 -8 34 -22 35 -29 1z"/>
<path d="M835 548 c7 -32 10 -60 13 -105 1 -14 9 -23 18 -23 8 0 12 5 9 10 -3
6 -1 10 4 10 13 0 14 -30 2 -49 -5 -7 -14 -10 -20 -7 -7 5 -11 -8 -11 -40 0
-40 2 -45 15 -34 19 16 21 14 29 -33 4 -23 3 -37 -4 -37 -5 0 -10 7 -10 15 0
8 -7 15 -16 15 -12 0 -15 -6 -10 -22 3 -13 6 -31 6 -42 0 -12 5 -16 15 -12 12
4 15 -3 15 -29 0 -26 -3 -33 -15 -29 -24 10 -17 -12 14 -47 21 -23 34 -30 48
-25 10 4 67 9 128 12 114 5 161 17 168 44 7 27 -3 262 -12 296 -5 17 -5 37 -1
44 8 13 -8 50 -22 50 -3 0 -9 -8 -11 -17 -3 -11 -5 -7 -6 10 -1 20 4 27 18 27
17 0 31 18 31 40 0 4 -11 8 -25 8 -14 0 -25 -5 -25 -11 0 -7 -4 -7 -12 1 -17
17 -26 15 -32 -6 -5 -16 -15 -18 -74 -15 -37 2 -86 4 -109 5 -31 0 -43 4 -43
15 0 8 -6 13 -12 10 -7 -2 -11 -13 -10 -23 4 -17 2 -17 -20 4 -33 30 -42 28
-33 -10z m207 -84 c-14 -25 -22 5 -9 36 10 25 11 25 14 3 3 -12 0 -30 -5 -39z
m-92 7 c0 -12 -20 -25 -27 -18 -7 7 6 27 18 27 5 0 9 -4 9 -9z m196 -6 c11
-29 -2 -37 -19 -11 -15 23 -16 26 -2 26 9 0 18 -7 21 -15z m-67 -74 c9 -6 10
-11 2 -15 -18 -11 -13 -24 11 -28 12 -2 27 -13 33 -24 6 -12 16 -28 23 -36 6
-8 8 -18 4 -22 -4 -4 -8 -26 -8 -49 -2 -75 -13 -106 -40 -113 -30 -8 -51 9
-59 47 -8 35 -25 39 -25 5 0 -37 -10 -56 -31 -56 -29 0 -36 28 -33 120 6 145
18 175 70 178 22 1 45 -2 53 -7z"/>
<path d="M1014 366 c-8 -22 3 -33 18 -18 9 9 9 15 0 24 -9 9 -13 7 -18 -6z"/>
<path d="M530 171 c0 -4 -11 -6 -24 -4 -29 6 -35 -3 -29 -44 4 -24 11 -33 24
-33 21 0 25 20 8 37 -7 7 -3 11 16 11 31 -1 39 6 32 27 -7 16 -27 21 -27 6z"/>
<path d="M1477 134 c-14 -14 -7 -25 13 -22 12 2 21 8 21 13 0 12 -24 18 -34 9z"/>
<path d="M713 115 c-3 -9 -3 -18 0 -22 10 -10 37 6 37 22 0 20 -29 20 -37 0z"/>
<path d="M413 108 c4 -13 34 -18 51 -10 11 6 -15 22 -37 22 -11 0 -17 -5 -14
-12z"/>
</g>
</svg>
