<svg xmlns="http://www.w3.org/2000/svg" xmlns:xlink="http://www.w3.org/1999/xlink" width="100.579" height="13" viewBox="0 0 100.579 13">
  <g data-name="Group 7">
    <path data-name="Path 107" d="M95.125,6.278H7.089c-.308,0-.558-.487-.558-1.089S6.782,4.1,7.089,4.1H95.125c.308,0,.557.488.557,1.089s-.25,1.089-.557,1.089" transform="translate(0.349 1.325)" fill="#fff"/>
    <path data-name="Path 108" d="M0,13,6.245,6.5,0,0H6.842l6.245,6.5L6.842,13Z" transform="translate(0 0)" fill="#fff"/>
    <path data-name="Path 109" d="M9.05,13l6.245-6.5L9.05,0h6.842l6.245,6.5L15.892,13Z" transform="translate(0.484 0)" fill="#fff"/>
    <path data-name="Path 110" d="M18.1,13l6.245-6.5L18.1,0h6.842l6.245,6.5L24.942,13Z" transform="translate(0.967 0)" fill="#fff"/>
    <path data-name="Path 111" d="M82.439.225,96.173,6.441,82.439,12.657a47.054,47.054,0,0,0,1.188-6.216A47.054,47.054,0,0,0,82.439.225" transform="translate(4.406 0.073)" fill="#fff"/>
  </g>
</svg>
